# xmcd
#
# Track frame offsets: 
#        150
#        18668
#        33448
#        44068
#        53791
#        69557
#        80887
#        93480
#        105119
#        115155
#        125015
#        138987
#        151461
#        162112
#        175897
#        188649
#
# Disc length: 2645 seconds
#
# Revision: 0
# Processed by: cddbd v1.5.2PL0 Copyright (c) Steve Scherf et al.
# Submitted via: ExactAudioCopy v0.99pb5
#
DISCID=d80a5310
DTITLE=Various Artist - Country Man [CD 2)
DYEAR=1999
DGENRE=Country
TTITLE0=George Jones - Bartender Blues
TTITLE1=Kenny Roges - For The Good Times
TTITLE2=Ferlin Husky - The Wings Of A Dove
TTITLE3=Freddy Fender - But I Do
TTITLE4=George Jones - He Stopped Loving Her Today
TTITLE5=Hank Locklin - Send Me The Pillow You Dream On
TTITLE6=Kenny Rogers - Ruben James
TTITLE7=Faron Young - Wine Me Up
TTITLE8=Merle Haggard - Mama Tried
TTITLE9=Freddy Fender - Before The Next Teardrop Falls
TTITLE10=Jerry Lee Lewis - Hadacol Boogie
TTITLE11=Don Williams - Comming Apart
TTITLE12=George Jones - The One I Loved Back Then
TTITLE13=Merle Haggard - That's The Way Love Goes
TTITLE14=Jerry Lee Lewis - Hey Baby
TTITLE15=Willie Nelson - Broken Promises
EXTD=
EXTT0=
EXTT1=
EXTT2=
EXTT3=
EXTT4=
EXTT5=
EXTT6=
EXTT7=
EXTT8=
EXTT9=
EXTT10=
EXTT11=
EXTT12=
EXTT13=
EXTT14=
EXTT15=
PLAYORDER=
